<?xml version="1.0" encoding="iso-8859-1"?>
<!-- Uploaded to: SVG Repo, www.svgrepo.com, Generator: SVG Repo Mixer Tools -->
<svg height="800px" width="800px" version="1.1" id="Layer_1" xmlns="http://www.w3.org/2000/svg" xmlns:xlink="http://www.w3.org/1999/xlink" 
	 viewBox="0 0 512 512" xml:space="preserve">
<path style="fill:#FFDA44;" d="M255.999,512c-7.764,0-14.842-3.933-18.94-10.533L99.567,280.499l0,0
	c-17.945-28.99-27.427-62.413-27.427-96.658c0-50.747,20.229-97.996,56.955-133.042c36.711-35.022,84.884-52.858,135.756-50.61
	C357.183,4.53,433.9,80.17,439.509,172.383c2.334,38.342-7.03,75.727-27.08,108.116L274.95,501.45
	C270.841,508.066,263.763,512,255.999,512z"/>
<path style="fill:#FFA733;" d="M264.851,0.189c-2.973-0.13-5.899,0.038-8.852,0.043V512c7.764,0,14.842-3.933,18.951-10.55
	l137.481-220.951c20.05-32.389,29.413-69.774,27.08-108.116C433.9,80.17,357.184,4.53,264.851,0.189z"/>
<path style="fill:#AA6100;" d="M263.812,180.212c-10.348-5.473-24.528-12.966-24.528-18.657c0-9.216,7.498-16.714,16.714-16.714
	s16.714,7.498,16.714,16.714c0,9.233,7.481,16.714,16.714,16.714c9.233,0,16.714-7.481,16.714-16.714
	c0-21.761-14.016-40.14-33.429-47.063V94.697c0-9.233-7.481-16.714-16.714-16.714c-9.233,0-16.714,7.481-16.714,16.714v19.794
	c-19.413,6.923-33.429,25.303-33.429,47.064c0,25.834,23.472,38.238,42.336,48.207c10.348,5.473,24.522,12.966,24.522,18.651
	c0,9.216-7.498,16.714-16.714,16.714c-9.216,0-16.714-7.498-16.714-16.714c0-9.233-7.481-16.714-16.714-16.714
	c-9.233,0-16.714,7.481-16.714,16.714c0,21.761,14.016,40.14,33.429,47.063v19.794c0,9.233,7.481,16.714,16.714,16.714
	c9.233,0,16.714-7.481,16.714-16.714v-19.794c19.413-6.923,33.429-25.303,33.429-47.063
	C306.142,202.585,282.671,190.18,263.812,180.212z"/>
<g>
	<path style="fill:#884E00;" d="M272.713,161.555c0,9.233,7.481,16.714,16.714,16.714c9.233,0,16.714-7.481,16.714-16.714
		c0-21.761-14.016-40.14-33.429-47.063V94.697c0-9.233-7.481-16.714-16.714-16.714v66.858
		C265.216,144.841,272.713,152.339,272.713,161.555z"/>
	<path style="fill:#884E00;" d="M272.713,295.271v-19.794c19.413-6.923,33.429-25.303,33.429-47.063
		c0-25.828-23.472-38.234-42.33-48.201c-2.467-1.306-5.154-2.73-7.813-4.214v37.975c8.493,4.736,16.714,10.109,16.714,14.44
		c0,9.216-7.498,16.714-16.714,16.714v66.858C265.232,311.985,272.713,304.504,272.713,295.271z"/>
</g>
</svg>